<?xml version="1.0" encoding="utf-8"?><svg viewBox="0 0 268 267" xmlns="http://www.w3.org/2000/svg" xmlns:xlink="http://www.w3.org/1999/xlink"><style>:root>svg{display:none}:root>svg:target{display:block}</style><svg fill="none" viewBox="0 0 28 64" id="arrow-left" xmlns="http://www.w3.org/2000/svg"><path d="M26 2L3.999 29.501a4 4 0 000 4.998L26 62" stroke="#000" stroke-width="5"/></svg><svg fill="none" viewBox="0 0 28 64" id="arrow-right" xmlns="http://www.w3.org/2000/svg"><path d="M2 2l22.001 27.501a4 4 0 010 4.998L2 62" stroke="#000" stroke-width="5"/></svg><svg fill="none" viewBox="0 0 268 267" id="catalog-circle-blue" xmlns="http://www.w3.org/2000/svg"><path d="M260 134.444c0 30.784-15.77 61.97-40.054 85.639C195.665 243.75 163.788 259 132.849 259c-30.91 0-62.189-15.226-85.88-38.852C23.275 196.52 8 165.32 8 134.444c0-30.791 15.294-62.484 39.024-86.625C70.755 23.677 102.021 8 132.85 8c30.857 0 62.721 15.703 87.04 39.883C244.211 72.066 260 103.744 260 134.444z" stroke="#089EA5" stroke-width="16"/></svg><svg fill="none" viewBox="0 0 201 200" id="catalog-circle-yellow" xmlns="http://www.w3.org/2000/svg"><path d="M201 100.707C201 150.825 149.848 200 99.637 200 49.427 200 0 150.825 0 100.707 0 50.747 49.426 0 99.637 0S201 50.746 201 100.707z" fill="#FFF7BE"/></svg><svg fill="none" viewBox="0 0 16 16" id="phone" xmlns="http://www.w3.org/2000/svg"><g clip-path="url(#eclip0_4_18)"><path d="M15.563 11.742L13.331 9.51c-.798-.798-2.153-.479-2.473.558-.239.718-1.036 1.116-1.754.957-1.595-.399-3.748-2.472-4.147-4.147-.239-.718.24-1.515.957-1.754 1.037-.32 1.356-1.675.559-2.472L4.24.419c-.638-.559-1.595-.559-2.153 0L.57 1.934c-1.515 1.595.16 5.821 3.908 9.57 3.748 3.747 7.974 5.502 9.57 3.907l1.514-1.515c.559-.639.559-1.595 0-2.154z" fill="#fff"/></g><defs><clipPath id="eclip0_4_18"><path fill="#fff" d="M0 0h16v16H0z"/></clipPath></defs></svg></svg>